<svg xmlns="http://www.w3.org/2000/svg" viewBox="0 0 64 64" role="img" aria-label="JSON braces icon">
  <defs>
    <linearGradient id="bg-braces" x1="12" y1="4" x2="52" y2="60" gradientUnits="userSpaceOnUse">
      <stop offset="0" stop-color="#0f172a" />
      <stop offset="1" stop-color="#1e293b" />
    </linearGradient>
  </defs>
  <rect width="60" height="60" x="2" y="2" rx="14" fill="url(#bg-braces)" />
  <path
    d="M22 20c-3 0-5 2-5 5v2c0 2-1 3-3 3v4c2 0 3 1 3 3v2c0 3 2 5 5 5h2v-4h-1c-1 0-2-1-2-2v-2c0-3-1-5-4-6 3-1 4-3 4-6v-2c0-1 1-2 2-2h1v-4zm20 0h-2v4h1c1 0 2 1 2 2v2c0 3 1 5 4 6-3 1-4 3-4 6v2c0 1-1 2-2 2h-1v4h2c3 0 5-2 5-5v-2c0-2 1-3 3-3v-4c-2 0-3-1-3-3v-2c0-3-2-5-5-5z"
    fill="#38bdf8"
  />
  <rect x="30" y="28" width="4" height="8" rx="1.5" fill="#22d3ee" />
</svg>
